Coordinates
version=1
nRows=7
nColumns=42
inDegrees=yes

Units are S.I. units (second, meters, Newtons, ...)
If the header above contains a line with 'inDegrees', this indicates whether rotational values are in degrees (yes) or radians (no).

endheader
time	pelvis_tilt	pelvis_list	pelvis_rotation	pelvis_tx	pelvis_ty	pelvis_tz	hip_flexion_r	hip_adduction_r	hip_rotation_r	knee_angle_r	knee_adduction_r	knee_angle_r_beta	ankle_angle_r	subtalar_angle_r	mtp_angle_r	hip_flexion_l	hip_adduction_l	hip_rotation_l	knee_angle_l	knee_adduction_l	knee_angle_l_beta	ankle_angle_l	subtalar_angle_l	mtp_angle_l	lumbar_extension	lumbar_bending	lumbar_rotation	arm_flex_r	arm_add_r	arm_rot_r	elbow_flex_r	pro_sup_r	wrist_flex_r	wrist_dev_r	arm_flex_l	arm_add_l	arm_rot_l	elbow_flex_l	pro_sup_l	wrist_flex_l	wrist_dev_l
      2.49000000	      8.13779301	     -1.11464823	      1.05208406	      0.10819558	      0.88940205	      0.24528267	     -5.14869112	     -3.35575354	    -17.75375882	     33.19146853	      9.12982042	      0.57930041	     28.75072810	     27.60639950	     -7.50108676	     29.35040225	     -3.00911862	    -25.04783678	     32.44150541	     -5.43363997	      0.56621108	     13.39989548	     19.97845443	     -7.50108676	    -21.67716017	      7.26747479	     -0.28552732	     18.38500319	    -13.21312564	     -6.08894838	     38.06686958	     90.00000001	      0.00000000	      0.00000000	     -6.26690357	     -4.48794910	    -28.48587060	     37.35011520	     90.00000001	      0.00000000	      0.00000000
      2.50000000	      8.07901320	     -1.17239349	      1.15138102	      0.11556939	      0.88799078	      0.24478758	     -5.58492681	     -3.24609215	    -17.67042911	     33.30455978	      9.06758688	      0.58127422	     28.77401696	     27.60212608	     -7.50108592	     29.74750745	     -2.93316617	    -25.16917326	     32.27560562	     -5.28490409	      0.56331559	     13.40091737	     20.01591149	     -7.50108592	    -21.58770168	      7.33696901	     -0.22183257	     18.46492809	    -13.17870925	     -6.06849536	     38.12086305	     90.00000001	      0.00000000	      0.00000000	     -6.33049309	     -4.45658057	    -28.49136416	     37.30595465	     90.00000001	      0.00000000	      0.00000000
      2.51000000	      8.13988109	     -1.27830151	      1.13183435	      0.12326729	      0.88687719	      0.24426159	     -6.30089471	     -2.99033398	    -16.80740942	     33.00480045	      9.25710903	      0.57604244	     29.35382707	     26.56005871	     -7.50103467	     29.87659914	     -3.02200404	    -26.63597323	     31.95359823	     -5.75230503	      0.55769550	     13.50700400	     23.16658757	     -7.50103467	    -21.62328356	      7.49540861	     -0.23868202	     18.28278718	    -13.26123655	     -5.51182386	     39.01162650	     90.00000001	      0.00000000	      0.00000000	     -6.22678778	     -4.36695924	    -28.70484788	     36.31748481	     90.00000001	      0.00000000	      0.00000000
      2.52000000	      8.07596874	     -1.32265647	      1.19591547	      0.13085239	      0.88544487	      0.24373040	     -6.73233150	     -2.90865006	    -16.71280325	     33.11825032	      9.18672658	      0.57802251	     29.36916640	     26.56305992	     -7.50103408	     30.10793416	     -2.88653697	    -26.69060633	     31.92706793	     -5.66264531	      0.55723246	     13.50024811	     23.17965983	     -7.50103408	    -21.50860471	      7.53126957	     -0.15815977	     18.32733340	    -13.22307122	     -5.49529869	     39.04071096	     90.00000001	      0.00000000	      0.00000000	     -6.28854622	     -4.34351121	    -28.71211300	     36.28472984	     90.00000001	      0.00000000	      0.00000000
      2.53000000	      8.13701849	     -1.35543446	      1.23746512	      0.13865464	      0.88412007	      0.24315733	     -7.34309872	     -2.79563413	    -16.45897954	     33.17269740	      9.11310643	      0.57897279	     29.53021001	     26.53019814	     -7.50103156	     30.19297738	     -2.68653420	    -26.79375861	     32.09616121	     -5.79535616	      0.56018369	     13.45194089	     23.27697334	     -7.50103156	    -21.52990364	      7.55603872	     -0.23362853	     18.26926901	    -13.12662535	     -5.45716780	     39.10730976	     90.00000001	      0.00000000	      0.00000000	     -6.52080798	     -4.25279741	    -28.73774643	     36.09210889	     90.00000001	      0.00000000	      0.00000000
      2.54000000	      8.30817221	     -1.43632425	      1.26102335	      0.14673294	      0.88300115	      0.24263414	     -8.30427535	     -2.59831688	    -15.69389147	     32.75187068	      9.40374892	      0.57162798	     30.32258108	     25.72906450	     -7.50099828	     30.13873290	     -2.73627072	    -27.76048845	     32.47661310	     -6.19212878	      0.56682383	     13.48187914	     24.85039639	     -7.50099828	    -21.65643420	      7.63975925	     -0.14362170	     18.03149296	    -13.17543350	     -5.16736411	     39.85747352	     90.00000001	      0.00000000	      0.00000000	     -6.28880802	     -4.27339810	    -28.93831168	     35.19679236	     90.00000001	      0.00000000	      0.00000000
      2.55000000	      8.31201193	     -1.43460121	      1.25585530	      0.15480448	      0.88161432	      0.24211412	     -8.84184567	     -2.56189766	    -15.55362563	     32.87045155	      9.28902912	      0.57369761	     30.33786725	     25.69782838	     -7.50099615	     30.12915246	     -2.50005483	    -27.75696872	     32.77773956	     -6.33941857	      0.57207948	     13.46449712	     24.88036428	     -7.50099615	    -21.58612296	      7.58466032	     -0.11431544	     17.88492733	    -13.09526590	     -5.14135593	     39.84499522	     90.00000001	      0.00000000	      0.00000000	     -6.47896083	     -4.22349085	    -28.96984528	     35.06954638	     90.00000001	      0.00000000	      0.00000000
